<?xml version="1.0" encoding="UTF-8" standalone="no"?>
<svg
   xmlns:dc="http://purl.org/dc/elements/1.1/"
   xmlns:cc="http://creativecommons.org/ns#"
   xmlns:rdf="http://www.w3.org/1999/02/22-rdf-syntax-ns#"
   xmlns:svg="http://www.w3.org/2000/svg"
   xmlns="http://www.w3.org/2000/svg"
   xmlns:sodipodi="http://sodipodi.sourceforge.net/DTD/sodipodi-0.dtd"
   xmlns:inkscape="http://www.inkscape.org/namespaces/inkscape"
   inkscape:version="1.0 (4035a4fb49, 2020-05-01)"
   sodipodi:docname="cross.svg"
   id="svg22"
   version="1.1"
   fill="none"
   viewBox="0 0 12 12"
   height="12"
   width="12">
  <metadata
     id="metadata28">
    <rdf:RDF>
      <cc:Work
         rdf:about="">
        <dc:format>image/svg+xml</dc:format>
        <dc:type
           rdf:resource="http://purl.org/dc/dcmitype/StillImage" />
      </cc:Work>
    </rdf:RDF>
  </metadata>
  <defs
     id="defs26" />
  <sodipodi:namedview
     inkscape:current-layer="svg22"
     inkscape:window-maximized="0"
     inkscape:window-y="0"
     inkscape:window-x="0"
     inkscape:cy="5.9232955"
     inkscape:cx="6"
     inkscape:zoom="58.666667"
     showgrid="false"
     id="namedview24"
     inkscape:window-height="958"
     inkscape:window-width="1898"
     inkscape:pageshadow="2"
     inkscape:pageopacity="0"
     guidetolerance="10"
     gridtolerance="10"
     objecttolerance="10"
     borderopacity="1"
     bordercolor="#666666"
     pagecolor="#ffffff" />
  <path
     id="path20"
     fill="#292929"
     d="M7.42618 6.00003L11.7046 1.72158C12.0985 1.32775 12.0985 0.689213 11.7046 0.295433C11.3108 -0.0984027 10.6723 -0.0984027 10.2785 0.295433L5.99998 4.57394L1.72148 0.295377C1.32765 -0.098459 0.68917 -0.098459 0.295334 0.295377C-0.0984448 0.689213 -0.0984448 1.32775 0.295334 1.72153L4.57383 5.99997L0.295334 10.2785C-0.0984448 10.6723 -0.0984448 11.3108 0.295334 11.7046C0.68917 12.0985 1.32765 12.0985 1.72148 11.7046L5.99998 7.42612L10.2785 11.7046C10.6723 12.0985 11.3108 12.0985 11.7046 11.7046C12.0985 11.3108 12.0985 10.6723 11.7046 10.2785L7.42618 6.00003Z"
     clip-rule="evenodd"
     fill-rule="evenodd" />
  <path
     id="path30"
     d="M 0.90340909,11.981604 C 0.3791567,11.930888 -0.02977364,11.439322 0.01469182,10.913296 0.02732345,10.763864 0.08590879,10.585442 0.16306844,10.461414 0.1983369,10.404722 1.015086,9.574603 2.4017555,8.1860795 L 4.5849162,6 2.4017555,3.8139205 C 1.015086,2.425397 0.1983369,1.5952778 0.16306844,1.5385864 0.03916256,1.3394168 -0.01466068,1.0696545 0.02416333,0.84239339 0.03626198,0.77157247 0.07412761,0.66276414 0.11891572,0.57011882 0.18038344,0.44297131 0.21601998,0.39442945 0.32134843,0.29437773 0.52372076,0.1021438 0.73689027,0.01534091 1.0066038,0.01534091 c 0.1717054,0 0.3182985,0.03593475 0.4763507,0.11676909 0.1105588,0.0565442 0.2807414,0.22222348 2.3181819,2.2568381 L 6,4.5847618 8.1988636,2.3889919 C 10.23559,0.35513095 10.406525,0.18871913 10.517045,0.13215396 c 0.1604,-0.08209379 0.305353,-0.11701744 0.484508,-0.11673264 0.671806,0.001068 1.152964,0.68036043 0.93199,1.31577078 -0.0226,0.064977 -0.06607,0.1583043 -0.09661,0.2073943 -0.03527,0.056691 -0.852018,0.8868106 -2.2386875,2.2753341 L 7.4150838,6 9.5982445,8.1860795 c 1.3866695,1.3885235 2.2034185,2.2186425 2.2386875,2.2753345 0.235262,0.378167 0.189599,0.871031 -0.110841,1.196341 -0.317603,0.343894 -0.787956,0.425624 -1.209046,0.210085 C 10.406532,11.81127 10.235463,11.644734 8.1988483,9.6110334 L 5.9999691,7.4153008 3.801121,9.6110393 C 1.7624477,11.646829 1.593581,11.811217 1.4829545,11.867719 1.2922142,11.96514 1.1078076,12.001377 0.90340909,11.981604 Z"
     style="fill:#ffffff;stroke-width:0.0170455" />
</svg>
